# xmcd
#
# Track frame offsets: 
#        150
#        7412
#        15789
#        22020
#        29995
#        36793
#        51403
#        61576
#        69784
#        81784
#        91901
#        99798
#        106680
#        118203
#        129513
#        138881
#        151641
#        160087
#        165513
#        177503
#        186189
#        194689
#        205265
#        217664
#        222546
#        233192
#        237871
#
# Disc length: 3211 seconds
#
# Revision: 2
# Processed by: cddbd v1.5.2PL0 Copyright (c) Steve Scherf et al.
# Submitted via: ExactAudioCopy v1.1
#
DISCID=660c891b
DTITLE=Tennessee Ernie Ford - Tennessee Ernie Meets The Girls (Jasmine
DTITLE=)
DYEAR=2000
DGENRE=Country
TTITLE0=Swinging' Down he Lane (duet w. Lou Dinning)
TTITLE1=I'd Rather Die Young (v. Lou Dinning)
TTITLE2=Texas, All My Rambling Days Are Gone (duet w. Lou Dinning)
TTITLE3=Hit And Run Affair (v. Lou Dinning)
TTITLE4=A Penny A Kiss, A Penny A Hug (duet w. Lou Dinning)
TTITLE5=In The Pines (v. Lou Dinning)
TTITLE6=The Lady From 29 Palms (v. Helen Frost)
TTITLE7=(Did You Ever Get) That Feeling In The Moonlight? (duet w. Hel
TTITLE7=en Forrest)
TTITLE8=A Hundred Years From Today (v. Helen Forrest)
TTITLE9=Shoo Shoo Baby (v. Jeanne Galye)
TTITLE10=Detour (duet w. Jeanne Gayle)
TTITLE11=Potatoes Are Cheaper (duet w. Jeanne Gayle)
TTITLE12=Hit And Run Affair (duet w. Jeanne Gayle)
TTITLE13=Ridin' To Tennessee (v. Roberta Lee)
TTITLE14=If You Don't Know No Common Folks (v Roberta Lee)
TTITLE15=Sleepy Time Gal
TTITLE16=Walking My Baby Back Home (v. Kay St. Germaine)
TTITLE17=I Never Knew (I Could Love Anybody Like I'm Loving You) (duet
TTITLE17=w. Kay St. Germaine)
TTITLE18=Changing Partners (v. Hellen O'Connell)
TTITLE19=Hey, Good Lookin' (duet w. Helen O'Connell)
TTITLE20=Slow Poke (v. Helen O'Connell)
TTITLE21=Gee, But I Hate To Go Home Along (v. Sue Thompson)
TTITLE22=You Belong To Me (v. Sue Thompson)
TTITLE23=How Come You Do Me Like You Do (duet. w. Sue Thompson)
TTITLE24=Take It Back And Change It For A Boy (v. Bucky Tibbs)
TTITLE25=You'd Be Surprised (duet v. Bucky Tibbs)
TTITLE26=Closing Comedy
EXTD=
EXTT0=
EXTT1=
EXTT2=
EXTT3=
EXTT4=
EXTT5=
EXTT6=
EXTT7=
EXTT8=
EXTT9=
EXTT10=
EXTT11=
EXTT12=
EXTT13=
EXTT14=
EXTT15=
EXTT16=
EXTT17=
EXTT18=
EXTT19=
EXTT20=
EXTT21=
EXTT22=
EXTT23=
EXTT24=
EXTT25=
EXTT26=
PLAYORDER=
